<svg xmlns="http://www.w3.org/2000/svg" viewBox="0 0 640 400" role="img" aria-labelledby="title desc">
  <title id="title">RAG WhatsApp Assistant Visualization</title>
  <desc id="desc">Gradient visualization representing a fast messaging assistant with layered retrieval.</desc>
  <defs>
    <linearGradient id="bg" x1="0%" y1="0%" x2="100%" y2="100%">
      <stop offset="0%" stop-color="#1d4ed8"/>
      <stop offset="50%" stop-color="#0ea5e9"/>
      <stop offset="100%" stop-color="#38bdf8"/>
    </linearGradient>
    <radialGradient id="pulse" cx="50%" cy="50%" r="55%">
      <stop offset="0%" stop-color="rgba(14,165,233,0.65)"/>
      <stop offset="70%" stop-color="rgba(14,165,233,0.15)"/>
      <stop offset="100%" stop-color="rgba(14,165,233,0)"/>
    </radialGradient>
  </defs>
  <rect width="640" height="400" fill="#0f172a"/>
  <rect x="20" y="20" width="600" height="360" rx="32" fill="url(#bg)" opacity="0.12"/>
  <circle cx="180" cy="170" r="150" fill="url(#pulse)"/>
  <circle cx="460" cy="220" r="120" fill="rgba(59,130,246,0.25)"/>
  <g fill="none" stroke="#38bdf8" stroke-width="3" stroke-linecap="round">
    <path d="M120 260 C220 170, 320 300, 420 200"/>
    <path d="M200 150 Q320 40 440 150"/>
  </g>
  <g fill="none" stroke="#fde68a" stroke-width="2" opacity="0.7">
    <path d="M150 310 L260 220 L360 320"/>
    <path d="M300 120 L420 80 L520 180"/>
  </g>
  <g fill="#f8fafc">
    <circle cx="220" cy="145" r="8"/>
    <circle cx="320" cy="245" r="8"/>
    <circle cx="420" cy="160" r="8"/>
  </g>
  <g fill="none" stroke="#bae6fd" stroke-width="1.5" opacity="0.8">
    <rect x="420" y="260" width="140" height="80" rx="18"/>
    <path d="M430 300 L480 300"/>
    <path d="M430 320 L540 320"/>
  </g>
</svg>
